<svg version="1.1" viewBox="0 0 80 60" xmlns="http://www.w3.org/2000/svg">
<defs>
<linearGradient id="card-duotone" x1="7.92190819%" x2="88.5996768%" y1="29.101783%" y2="69.8140899%">
<stop offset="50%" class="stop1" stop-color="#888888" stop-opacity="1"></stop>
<stop offset="50%" class="stop2" stop-color="#666666" stop-opacity="1"></stop>
</linearGradient>
<filter filterUnits="objectBoundingBox" height="200.0%" id="6acc9ee8-3a49-457e-a55c-0d965677f494" width="124.8%" x="-12.4%" y="-50.0%">
<feOffset dx="1" dy="1" in="SourceAlpha" result="shadowOffsetOuter1"></feOffset>
<feGaussianBlur in="shadowOffsetOuter1" result="shadowBlurOuter1" stdDeviation="1"></feGaussianBlur>
<feColorMatrix in="shadowBlurOuter1" result="shadowMatrixOuter1" type="matrix" values="0 0 0 0 0   0 0 0 0 0   0 0 0 0 0  0 0 0 0.3 0"></feColorMatrix>
<feMerge>
<feMergeNode in="shadowMatrixOuter1"></feMergeNode>
<feMergeNode in="SourceGraphic"></feMergeNode>
</feMerge>
</filter>
</defs>
<g fill="none" fill-rule="evenodd" stroke="none" stroke-width="1">
<path d="M83.4042553,-1.70212766 L83.4042553,62.9787234 L-1.70212766,62.9787234 L-1.70212766,-1.70212766 L83.4042553,-1.70212766 Z M64.3259456,2 L15.6740544,2 C10.9192878,2 9.19509452,2.49506993 7.45682291,3.42470775 C5.71855131,4.35434558 4.35434558,5.71855131 3.42470775,7.45682291 C2.49506993,9.19509452 2,10.9192878 2,15.6740544 L2,15.6740544 L2,44.3259456 C2,49.0807122 2.49506993,50.8049055 3.42470775,52.5431771 C4.35434558,54.2814487 5.71855131,55.6456544 7.45682291,56.5752922 C9.19509452,57.5049301 10.9192878,58 15.6740544,58 L15.6740544,58 L64.3259456,58 C69.0807122,58 70.8049055,57.5049301 72.5431771,56.5752922 C74.2814487,55.6456544 75.6456544,54.2814487 76.5752922,52.5431771 C77.5049301,50.8049055 78,49.0807122 78,44.3259456 L78,44.3259456 L78,15.6740544 C78,10.9192878 77.5049301,9.19509452 76.5752922,7.45682291 C75.6456544,5.71855131 74.2814487,4.35434558 72.5431771,3.42470775 C70.8049055,2.49506993 69.0807122,2 64.3259456,2 L64.3259456,2 Z" fill="none"></path>
<path d="M15.6740544,2 L64.3259456,2 L65.1341825,2.00512682 C65.2638521,2.00683371 65.3910549,2.00896578 65.5158685,2.01152149 L66.2366995,2.03192717 C66.3522662,2.0361713 66.4655985,2.04083599 66.5767741,2.04591971 L67.2185653,2.08143801 C69.378586,2.2232649 70.6557734,2.5485242 71.7675229,3.04296012 L72.0812837,3.18881866 L72.3897593,3.3438102 C72.440938,3.3703991 72.4920515,3.39736546 72.5431771,3.42470775 C74.2814487,4.35434558 75.6456544,5.71855131 76.5752922,7.45682291 L76.7348226,7.7640503 C76.760655,7.81543708 76.7861085,7.8669666 76.8111813,7.91871635 L76.9570399,8.23247708 C77.4279312,9.29128617 77.7453744,10.5001522 77.8970547,12.4787885 L77.9375736,13.0960923 C77.9494141,13.309971 77.9595846,13.5321672 77.9680728,13.7633005 L77.9884785,14.4841315 L77.9987168,15.2623035 C78,15.3969838 78,15.5342083 78,15.6740544 L78,44.3259456 L77.9948732,45.1341825 C77.9931663,45.2638521 77.9910342,45.3910549 77.9884785,45.5158685 L77.9680728,46.2366995 C77.9638287,46.3522662 77.959164,46.4655985 77.9540803,46.5767741 L77.918562,47.2185653 C77.7767351,49.378586 77.4514758,50.6557734 76.9570399,51.7675229 L76.8111813,52.0812837 L76.6561898,52.3897593 C76.6296009,52.440938 76.6026345,52.4920515 76.5752922,52.5431771 C75.6456544,54.2814487 74.2814487,55.6456544 72.5431771,56.5752922 L72.2359497,56.7348226 C72.1845629,56.760655 72.1330334,56.7861085 72.0812837,56.8111813 L71.7675229,56.9570399 C70.7087138,57.4279312 69.4998478,57.7453744 67.5212115,57.8970547 L66.9039077,57.9375736 C66.690029,57.9494141 66.4678328,57.9595846 66.2366995,57.9680728 L65.5158685,57.9884785 L64.7376965,57.9987168 C64.6030162,58 64.4657917,58 64.3259456,58 L15.6740544,58 L14.8658175,57.9948732 C14.7361479,57.9931663 14.6089451,57.9910342 14.4841315,57.9884785 L13.7633005,57.9680728 C13.6477338,57.9638287 13.5344015,57.959164 13.4232259,57.9540803 L12.7814347,57.918562 C10.621414,57.7767351 9.34422663,57.4514758 8.23247708,56.9570399 L7.91871635,56.8111813 L7.61024075,56.6561898 C7.55906201,56.6296009 7.50794855,56.6026345 7.45682291,56.5752922 C5.71855131,55.6456544 4.35434558,54.2814487 3.42470775,52.5431771 L3.26517742,52.2359497 C3.23934498,52.1845629 3.21389155,52.1330334 3.18881866,52.0812837 L3.04296012,51.7675229 C2.57206876,50.7087138 2.25462559,49.4998478 2.10294529,47.5212115 L2.0624264,46.9039077 C2.05058594,46.690029 2.04041543,46.4678328 2.03192717,46.2366995 L2.01152149,45.5158685 L2.00128324,44.7376965 C2,44.6030162 2,44.4657917 2,44.3259456 L2.00128324,15.2623035 L2.01152149,14.4841315 L2.03192717,13.7633005 C2.0361713,13.6477338 2.04083599,13.5344015 2.04591971,13.4232259 L2.08143801,12.7814347 C2.2232649,10.621414 2.5485242,9.34422663 3.04296012,8.23247708 L3.18881866,7.91871635 L3.3438102,7.61024075 C3.3703991,7.55906201 3.39736546,7.50794855 3.42470775,7.45682291 C4.35434558,5.71855131 5.71855131,4.35434558 7.45682291,3.42470775 L7.7640503,3.26517742 C7.81543708,3.23934498 7.8669666,3.21389155 7.91871635,3.18881866 L8.23247708,3.04296012 C9.29128617,2.57206876 10.5001522,2.25462559 12.4787885,2.10294529 L13.0960923,2.0624264 C13.309971,2.05058594 13.5321672,2.04041543 13.7633005,2.03192717 L14.4841315,2.01152149 L15.2623035,2.00128324 C15.3969838,2 15.5342083,2 15.6740544,2 Z" fill="url(#card-duotone)" transform="translate(40.000000, 30.000000) scale(-1, -1) translate(-40.000000, -30.000000) "></path>
<path d="M76.5752922,7.45682291 C77.5049301,9.19509452 78,10.9192878 78,15.6740544 L78,44.3259456 C78,49.0807122 77.5049301,50.8049055 76.5752922,52.5431771 C75.6456544,54.2814487 74.2814487,55.6456544 72.5431771,56.5752922 C70.8049055,57.5049301 69.0807122,58 64.3259456,58 L15.6740544,58 C10.9192878,58 9.19509452,57.5049301 7.45682291,56.5752922 C6.15843735,55.880908 5.06875069,54.9440696 4.21297615,53.7899902 C4.60385419,54.0787569 5.01844301,54.3408441 5.45682291,54.5752922 C7.19509452,55.5049301 8.91928779,56 13.6740544,56 L13.6740544,56 L64.8894037,56 C68.7528001,56 70.153761,55.5977402 71.566161,54.8423805 C72.9785609,54.0870207 74.0870207,52.9785609 74.8423805,51.566161 C75.5977402,50.153761 76,48.7528001 76,44.8894037 L76,44.8894037 L76,13.6740544 C76,8.91928779 75.5049301,7.19509452 74.5752922,5.45682291 C74.3408441,5.01844301 74.0787569,4.60385419 73.790001,4.21402688 C74.9440696,5.06875069 75.880908,6.15843735 76.5752922,7.45682291 Z" fill="#000000" opacity="0.203002"></path>
<g fill="#FFFFFF" fill-opacity="0.9" fill-rule="nonzero" filter="url(#6acc9ee8-3a49-457e-a55c-0d965677f494)" transform="translate(13.750000, 33.833333)">
<path d="M1.5,0 C2.27969612,0 2.92044868,0.594888083 2.99313342,1.35553999 L3,1.5 L3,11.5 C3,12.3284271 2.32842712,13 1.5,13 C0.720303883,13 0.0795513218,12.4051119 0.00686657806,11.64446 L0,11.5 L0,1.5 C0,0.671572875 0.671572875,0 1.5,0 Z"></path>
<path d="M9.75,0 C10.5296961,0 11.1704487,0.594888083 11.2431334,1.35553999 L11.25,1.5 L11.25,11.5 C11.25,12.3284271 10.5784271,13 9.75,13 C8.97030388,13 8.32955132,12.4051119 8.25686658,11.64446 L8.25,11.5 L8.25,1.5 C8.25,0.671572875 8.92157288,0 9.75,0 Z"></path>
<path d="M18,0 C18.7796961,0 19.4204487,0.594888083 19.4931334,1.35553999 L19.5,1.5 L19.5,11.5 C19.5,12.3284271 18.8284271,13 18,13 C17.2203039,13 16.5795513,12.4051119 16.5068666,11.64446 L16.5,11.5 L16.5,1.5 C16.5,0.671572875 17.1715729,0 18,0 Z"></path>
<path d="M26.25,0 C27.0296961,0 27.6704487,0.594888083 27.7431334,1.35553999 L27.75,1.5 L27.75,11.5 C27.75,12.3284271 27.0784271,13 26.25,13 C25.4703039,13 24.8295513,12.4051119 24.7568666,11.64446 L24.75,11.5 L24.75,1.5 C24.75,0.671572875 25.4215729,0 26.25,0 Z"></path>
<path d="M34.5,0 C35.2796961,0 35.9204487,0.594888083 35.9931334,1.35553999 L36,1.5 L36,11.5 C36,12.3284271 35.3284271,13 34.5,13 C33.7203039,13 33.0795513,12.4051119 33.0068666,11.64446 L33,11.5 L33,1.5 C33,0.671572875 33.6715729,0 34.5,0 Z"></path>
<path d="M42.75,0 C43.5296961,0 44.1704487,0.594888083 44.2431334,1.35553999 L44.25,1.5 L44.25,11.5 C44.25,12.3284271 43.5784271,13 42.75,13 C41.9703039,13 41.3295513,12.4051119 41.2568666,11.64446 L41.25,11.5 L41.25,1.5 C41.25,0.671572875 41.9215729,0 42.75,0 Z"></path>
<path d="M51,0 C51.7796961,0 52.4204487,0.594888083 52.4931334,1.35553999 L52.5,1.5 L52.5,11.5 C52.5,12.3284271 51.8284271,13 51,13 C50.2203039,13 49.5795513,12.4051119 49.5068666,11.64446 L49.5,11.5 L49.5,1.5 C49.5,0.671572875 50.1715729,0 51,0 Z"></path>
</g>
</g>
</svg>