<svg viewBox="0 0 48 48" xmlns="http://www.w3.org/2000/svg" fill="none" stroke="#25B0A7" stroke-width="2" stroke-linecap="round" stroke-linejoin="round"><g id="SVGRepo_iconCarrier"><path fill="#63CBC1" d="M39.85,14.43,24.43,18.07a1.79,1.79,0,0,1-.86,0L8.15,14.43a1.87,1.87,0,0,0-1.87,1.86V38a1.87,1.87,0,0,0,1.87,1.86l15.42,3.62a1.79,1.79,0,0,0,.86,0l15.42-3.62A1.87,1.87,0,0,0,41.72,38V16.29A1.87,1.87,0,0,0,39.85,14.43Z"></path><line x1="22.57" y1="17.84" x2="22.57" y2="43.21"></line><line x1="25.43" y1="17.84" x2="25.43" y2="43.21"></line><path d="M37.56,15a15.1,15.1,0,0,0-27.12,0"></path><polyline points="30.17 7.82 30.17 4.5 32.7 6.13 35.23 4.5 35.23 11.52"></polyline></g></svg>